<svg xmlns="http://www.w3.org/2000/svg" version="1.1" viewBox="0 0 1422 800" opacity="0.53"><defs><linearGradient x1="50%" y1="0%" x2="50%" y2="100%" id="oooscillate-grad"><stop stop-color="hsl(52, 100%, 50%)" stop-opacity="1" offset="0%"></stop><stop stop-color="hsl(253, 87%, 41%)" stop-opacity="1" offset="100%"></stop></linearGradient></defs><g stroke-width="2.5" stroke="url(#oooscillate-grad)" fill="none" stroke-linecap="round"><path d="M 0 810 Q 355.5 275 711 400 Q 1066.5 525 1422 810" stroke-dasharray="81 80" opacity="0.05"></path><path d="M 0 780 Q 355.5 275 711 400 Q 1066.5 525 1422 780" stroke-dasharray="34 61" opacity="0.09"></path><path d="M 0 750 Q 355.5 275 711 400 Q 1066.5 525 1422 750" stroke-dasharray="17 90" opacity="0.12"></path><path d="M 0 720 Q 355.5 275 711 400 Q 1066.5 525 1422 720" stroke-dasharray="45 3" opacity="0.16"></path><path d="M 0 690 Q 355.5 275 711 400 Q 1066.5 525 1422 690" stroke-dasharray="36 12" opacity="0.20"></path><path d="M 0 660 Q 355.5 275 711 400 Q 1066.5 525 1422 660" stroke-dasharray="64 83" opacity="0.23"></path><path d="M 0 630 Q 355.5 275 711 400 Q 1066.5 525 1422 630" stroke-dasharray="74 52" opacity="0.27"></path><path d="M 0 600 Q 355.5 275 711 400 Q 1066.5 525 1422 600" stroke-dasharray="32 70" opacity="0.31"></path><path d="M 0 570 Q 355.5 275 711 400 Q 1066.5 525 1422 570" stroke-dasharray="55 12" opacity="0.34"></path><path d="M 0 540 Q 355.5 275 711 400 Q 1066.5 525 1422 540" stroke-dasharray="14 51" opacity="0.38"></path><path d="M 0 510 Q 355.5 275 711 400 Q 1066.5 525 1422 510" stroke-dasharray="95 74" opacity="0.42"></path><path d="M 0 480 Q 355.5 275 711 400 Q 1066.5 525 1422 480" stroke-dasharray="10 3" opacity="0.45"></path><path d="M 0 450 Q 355.5 275 711 400 Q 1066.5 525 1422 450" stroke-dasharray="36 58" opacity="0.49"></path><path d="M 0 420 Q 355.5 275 711 400 Q 1066.5 525 1422 420" stroke-dasharray="17 96" opacity="0.53"></path><path d="M 0 390 Q 355.5 275 711 400 Q 1066.5 525 1422 390" stroke-dasharray="16 53" opacity="0.56"></path><path d="M 0 360 Q 355.5 275 711 400 Q 1066.5 525 1422 360" stroke-dasharray="65 12" opacity="0.60"></path><path d="M 0 330 Q 355.5 275 711 400 Q 1066.5 525 1422 330" stroke-dasharray="24 22" opacity="0.63"></path><path d="M 0 300 Q 355.5 275 711 400 Q 1066.5 525 1422 300" stroke-dasharray="3 42" opacity="0.67"></path><path d="M 0 270 Q 355.5 275 711 400 Q 1066.5 525 1422 270" stroke-dasharray="83 23" opacity="0.71"></path><path d="M 0 240 Q 355.5 275 711 400 Q 1066.5 525 1422 240" stroke-dasharray="29 54" opacity="0.74"></path><path d="M 0 210 Q 355.5 275 711 400 Q 1066.5 525 1422 210" stroke-dasharray="73 43" opacity="0.78"></path><path d="M 0 180 Q 355.5 275 711 400 Q 1066.5 525 1422 180" stroke-dasharray="66 2" opacity="0.82"></path><path d="M 0 150 Q 355.5 275 711 400 Q 1066.5 525 1422 150" stroke-dasharray="1 28" opacity="0.85"></path><path d="M 0 120 Q 355.5 275 711 400 Q 1066.5 525 1422 120" stroke-dasharray="6 40" opacity="0.89"></path><path d="M 0 90 Q 355.5 275 711 400 Q 1066.5 525 1422 90" stroke-dasharray="78 17" opacity="0.93"></path><path d="M 0 60 Q 355.5 275 711 400 Q 1066.5 525 1422 60" stroke-dasharray="60 82" opacity="0.96"></path></g>
</svg>