<svg xmlns="http://www.w3.org/2000/svg" version="1.1" viewBox="0 0 800 800" opacity="1"><defs><linearGradient x1="50%" y1="0%" x2="50%" y2="100%" id="nnneon-grad"><stop stop-color="hsl(52, 100%, 50%)" stop-opacity="1" offset="0%"></stop><stop stop-color="hsl(253, 87%, 41%)" stop-opacity="1" offset="100%"></stop></linearGradient><filter id="nnneon-filter" x="-100%" y="-100%" width="400%" height="400%" filterUnits="objectBoundingBox" primitiveUnits="userSpaceOnUse" color-interpolation-filters="sRGB">
    <feGaussianBlur stdDeviation="2 2" x="0%" y="0%" width="100%" height="100%" in="SourceGraphic" edgeMode="none" result="blur"></feGaussianBlur></filter><filter id="nnneon-filter2" x="-100%" y="-100%" width="400%" height="400%" filterUnits="objectBoundingBox" primitiveUnits="userSpaceOnUse" color-interpolation-filters="sRGB">
    <feGaussianBlur stdDeviation="1 1" x="0%" y="0%" width="100%" height="100%" in="SourceGraphic" edgeMode="none" result="blur"></feGaussianBlur></filter></defs><g stroke-width="2.75" stroke="url(#nnneon-grad)" fill="none"><path d="M387.2598218241668 216.25223593091442C395.1434440793724 211.70144428650678 404.8565559206276 211.70144428650678 412.7401781758332 216.25350994873202L552.7598323995101 297.09376252784614C560.6434546547156 301.6445541722538 565.5000105753431 310.05689382175643 565.5000105753431 319.1597511283893V480.84025628661766C565.5000105753431 489.9431135932505 560.6434546547156 498.35545324275313 552.7598323995101 502.90751890497836L412.7401781758332 583.7477714840925C404.8565559206276 588.2985631285001 395.1434440793724 588.2985631285001 387.2598218241668 583.746497466275L247.24016760048994 502.9062448871607C239.35654534528442 498.35545324275313 234.4999894246568 489.9431135932505 234.4999894246568 480.84025628661766V319.1597511283893C234.4999894246568 310.05689382175643 239.35654534528442 301.6445541722538 247.24016760048994 297.0924885100286L387.2598218241668 216.25223593091442Z " filter="url(#nnneon-filter)"></path><path d="M392.2598218241668 216.25223593091442C400.1434440793724 211.70144428650678 409.8565559206276 211.70144428650678 417.7401781758332 216.25350994873202L557.7598323995101 297.09376252784614C565.6434546547156 301.6445541722538 570.5000105753431 310.05689382175643 570.5000105753431 319.1597511283893V480.84025628661766C570.5000105753431 489.9431135932505 565.6434546547156 498.35545324275313 557.7598323995101 502.90751890497836L417.7401781758332 583.7477714840925C409.8565559206276 588.2985631285001 400.1434440793724 588.2985631285001 392.2598218241668 583.746497466275L252.24016760048994 502.9062448871607C244.35654534528442 498.35545324275313 239.4999894246568 489.9431135932505 239.4999894246568 480.84025628661766V319.1597511283893C239.4999894246568 310.05689382175643 244.35654534528442 301.6445541722538 252.24016760048994 297.0924885100286L392.2598218241668 216.25223593091442Z " filter="url(#nnneon-filter2)" opacity="0.03"></path><path d="M382.2598218241668 216.25223593091442C390.1434440793724 211.70144428650678 399.8565559206276 211.70144428650678 407.7401781758332 216.25350994873202L547.7598323995101 297.09376252784614C555.6434546547156 301.6445541722538 560.5000105753431 310.05689382175643 560.5000105753431 319.1597511283893V480.84025628661766C560.5000105753431 489.9431135932505 555.6434546547156 498.35545324275313 547.7598323995101 502.90751890497836L407.7401781758332 583.7477714840925C399.8565559206276 588.2985631285001 390.1434440793724 588.2985631285001 382.2598218241668 583.746497466275L242.24016760048994 502.9062448871607C234.35654534528442 498.35545324275313 229.4999894246568 489.9431135932505 229.4999894246568 480.84025628661766V319.1597511283893C229.4999894246568 310.05689382175643 234.35654534528442 301.6445541722538 242.24016760048994 297.0924885100286L382.2598218241668 216.25223593091442Z " filter="url(#nnneon-filter2)" opacity="0.03"></path><path d="M387.2598218241668 216.25223593091442C395.1434440793724 211.70144428650678 404.8565559206276 211.70144428650678 412.7401781758332 216.25350994873202L552.7598323995101 297.09376252784614C560.6434546547156 301.6445541722538 565.5000105753431 310.05689382175643 565.5000105753431 319.1597511283893V480.84025628661766C565.5000105753431 489.9431135932505 560.6434546547156 498.35545324275313 552.7598323995101 502.90751890497836L412.7401781758332 583.7477714840925C404.8565559206276 588.2985631285001 395.1434440793724 588.2985631285001 387.2598218241668 583.746497466275L247.24016760048994 502.9062448871607C239.35654534528442 498.35545324275313 234.4999894246568 489.9431135932505 234.4999894246568 480.84025628661766V319.1597511283893C234.4999894246568 310.05689382175643 239.35654534528442 301.6445541722538 247.24016760048994 297.0924885100286L387.2598218241668 216.25223593091442Z "></path></g>
</svg>