<svg xmlns="http://www.w3.org/2000/svg" version="1.1" xmlns:xlink="http://www.w3.org/1999/xlink" xmlns:svgjs="http://svgjs.dev/svgjs" viewBox="0 0 800 800" style="user-select: auto;" opacity="1"><defs style="user-select: auto;"><linearGradient x1="50%" y1="0%" x2="50%" y2="100%" id="nnneon-grad" style="user-select: auto;"><stop stop-color="hsl(52, 100%, 50%)" stop-opacity="1" offset="0%" style="user-select: auto;"></stop><stop stop-color="hsl(253, 87%, 41%)" stop-opacity="1" offset="100%" style="user-select: auto;"></stop></linearGradient><filter id="nnneon-filter" x="-100%" y="-100%" width="400%" height="400%" filterUnits="objectBoundingBox" primitiveUnits="userSpaceOnUse" color-interpolation-filters="sRGB" style="user-select: auto;">
	<feGaussianBlur stdDeviation="24 10" x="0%" y="0%" width="100%" height="100%" in="SourceGraphic" edgeMode="none" result="blur" style="user-select: auto;"></feGaussianBlur></filter><filter id="nnneon-filter2" x="-100%" y="-100%" width="400%" height="400%" filterUnits="objectBoundingBox" primitiveUnits="userSpaceOnUse" color-interpolation-filters="sRGB" style="user-select: auto;">
	<feGaussianBlur stdDeviation="55 15" x="0%" y="0%" width="100%" height="100%" in="SourceGraphic" edgeMode="none" result="blur" style="user-select: auto;"></feGaussianBlur></filter></defs><g stroke-width="3" stroke="url(#nnneon-grad)" fill="none" style="user-select: auto;"><path d="M386.6824723600052 207.92527184399694C394.923358463634 203.16825097099078 405.076641536366 203.16825097099078 413.3175276399948 207.9266035967609L559.6824834145937 292.4303117308199C567.9233695182223 297.187332603826 573.0000110545884 305.9808961045146 573.0000110545884 315.4962696032909V484.5036858714087C573.0000110545884 494.0190593701851 567.9233695182223 502.8126228708736 559.6824834145937 507.57097549664377L413.3175276399948 592.0746836307027C405.076641536366 596.8317045037088 394.923358463634 596.8317045037088 386.6824723600052 592.0733518779386L240.31751658540645 507.56964374387985C232.07663048177767 502.8126228708736 226.99998894541164 494.0190593701851 226.99998894541164 484.5036858714087V315.4962696032909C226.99998894541164 305.9808961045146 232.07663048177767 297.187332603826 240.31751658540645 292.4289799780559L386.6824723600052 207.92527184399694Z " filter="url(#nnneon-filter)" style="user-select: auto;"></path><path d="M429.6824723600052 207.92527184399694C437.923358463634 203.16825097099078 448.076641536366 203.16825097099078 456.3175276399948 207.9266035967609L602.6824834145937 292.4303117308199C610.9233695182223 297.187332603826 616.0000110545884 305.9808961045146 616.0000110545884 315.4962696032909V484.5036858714087C616.0000110545884 494.0190593701851 610.9233695182223 502.8126228708736 602.6824834145937 507.57097549664377L456.3175276399948 592.0746836307027C448.076641536366 596.8317045037088 437.923358463634 596.8317045037088 429.6824723600052 592.0733518779386L283.31751658540645 507.56964374387985C275.07663048177767 502.8126228708736 269.99998894541164 494.0190593701851 269.99998894541164 484.5036858714087V315.4962696032909C269.99998894541164 305.9808961045146 275.07663048177767 297.187332603826 283.31751658540645 292.4289799780559L429.6824723600052 207.92527184399694Z " filter="url(#nnneon-filter2)" opacity="0.31" style="user-select: auto;"></path><path d="M343.6824723600052 207.92527184399694C351.923358463634 203.16825097099078 362.076641536366 203.16825097099078 370.3175276399948 207.9266035967609L516.6824834145937 292.4303117308199C524.9233695182223 297.187332603826 530.0000110545884 305.9808961045146 530.0000110545884 315.4962696032909V484.5036858714087C530.0000110545884 494.0190593701851 524.9233695182223 502.8126228708736 516.6824834145937 507.57097549664377L370.3175276399948 592.0746836307027C362.076641536366 596.8317045037088 351.923358463634 596.8317045037088 343.6824723600052 592.0733518779386L197.31751658540645 507.56964374387985C189.07663048177767 502.8126228708736 183.99998894541164 494.0190593701851 183.99998894541164 484.5036858714087V315.4962696032909C183.99998894541164 305.9808961045146 189.07663048177767 297.187332603826 197.31751658540645 292.4289799780559L343.6824723600052 207.92527184399694Z " filter="url(#nnneon-filter2)" opacity="0.31" style="user-select: auto;"></path><path d="M386.6824723600052 207.92527184399694C394.923358463634 203.16825097099078 405.076641536366 203.16825097099078 413.3175276399948 207.9266035967609L559.6824834145937 292.4303117308199C567.9233695182223 297.187332603826 573.0000110545884 305.9808961045146 573.0000110545884 315.4962696032909V484.5036858714087C573.0000110545884 494.0190593701851 567.9233695182223 502.8126228708736 559.6824834145937 507.57097549664377L413.3175276399948 592.0746836307027C405.076641536366 596.8317045037088 394.923358463634 596.8317045037088 386.6824723600052 592.0733518779386L240.31751658540645 507.56964374387985C232.07663048177767 502.8126228708736 226.99998894541164 494.0190593701851 226.99998894541164 484.5036858714087V315.4962696032909C226.99998894541164 305.9808961045146 232.07663048177767 297.187332603826 240.31751658540645 292.4289799780559L386.6824723600052 207.92527184399694Z " style="user-select: auto;"></path></g>
</svg>